<?xml version="1.0" encoding="utf-8"?>
<!-- Generated by IcoMoon.io -->
<!DOCTYPE svg PUBLIC "-//W3C//DTD SVG 1.1//EN" "http://www.w3.org/Graphics/SVG/1.1/DTD/svg11.dtd">
<svg version="1.1" xmlns="http://www.w3.org/2000/svg" xmlns:xlink="http://www.w3.org/1999/xlink" width="32" height="32" viewBox="0 0 32 32">
<path fill="#fff" d="M15.947 1.427c-8.058 0-14.547 6.558-14.547 14.547 0 8.058 6.489 14.547 14.547 14.547 7.989 0 14.547-6.489 14.547-14.547 0-7.989-6.559-14.547-14.547-14.547v0zM25.54 13.114l-0.453 0.384c-0.419 0.209-0.872 0.279-1.256 0.349-0.488 0.035-1.012 0.035-1.535 0.035-0.489 0-1.047 0-1.5 0.070-0.454 0.035-0.907 0.105-1.256 0.384-0.035 0-0.035 0-0.104 0.070 0 0-0.035 0-0.035 0.035v0.454c0.035 0.244 0.035 0.523 0.035 0.732l0.174 1.709c0.105 0.558 0.174 1.186 0.174 1.744 0.035 0.558 0.105 1.186 0.105 1.744s0 1.117-0.070 1.675c-0.035 0.523-0.14 1.011-0.314 1.534-0.105 0.454-0.349 0.907-0.628 1.291-0.070 0.070-0.104 0.174-0.175 0.279-0.035 0-0.035 0.104-0.104 0.104 0 0.070-0.070 0.070-0.070 0.14l-0.174 0.14c-0.139 0.314-0.314 0.524-0.558 0.733l-0.593 0.523c-0.244 0.174-0.453 0.279-0.697 0.349-0.454 0.139-0.942 0.139-1.395 0.035s-0.907-0.314-1.291-0.628c-0.419-0.279-0.733-0.663-0.977-1.046-0.209-0.384-0.384-0.907-0.453-1.361 0-0.488 0.070-0.942 0.279-1.36 0.174-0.314 0.453-0.593 0.732-0.837 0.349-0.279 0.698-0.489 1.082-0.628 0.384-0.174 0.802-0.209 1.186-0.209 0.348 0 0.732 0.175 1.011 0.384 0.279 0.279 0.523 0.732 0.558 1.186 0.070 0.244 0 0.523-0.104 0.802-0.105 0.175-0.244 0.384-0.454 0.558-0.174 0.104-0.384 0.279-0.628 0.384-0.105 0.069-0.174 0.069-0.279 0.105-0.035 0-0.035 0-0.035 0h-0.174c-0.070-0.035-0.14-0.035-0.175-0.105-0.070-0.105-0.174-0.209-0.174-0.349-0.070-0.035-0.070-0.105-0.070-0.14v-0.243c0.070-0.175 0.279-0.349 0.419-0.489 0.035-0.14 0.035-0.279 0.035-0.418 0-0.035 0-0.035 0-0.035h-0.105c0 0-0.070 0-0.105-0.070-0.105 0-0.279-0.069-0.384 0-0.244 0-0.454 0.105-0.628 0.279-0.174 0.244-0.279 0.453-0.349 0.698-0.070 0.279-0.070 0.558 0 0.837 0 0.28 0.105 0.489 0.279 0.732 0.105 0.209 0.349 0.454 0.628 0.489 0.279 0.14 0.628 0.14 0.942 0.069 0.418-0.104 0.732-0.279 1.011-0.523 0.314-0.209 0.593-0.558 0.732-0.837 0.244-0.349 0.349-0.732 0.454-1.116 0.14-0.454 0.244-0.907 0.279-1.361 0.070-0.453 0.070-0.942 0.070-1.465v-1.5l-0.175-1.535c-0.035-0.523-0.104-0.977-0.209-1.465-0.070-0.454-0.105-0.837-0.244-1.291 0-0.105-0.035-0.244-0.035-0.279v-0.174c0 0 0-0.070-0.069-0.070 0 0-0.070 0-0.070-0.035-0.209-0.14-0.488-0.070-0.767-0.070-0.104 0.070-0.244 0.070-0.349 0.105l-0.035 0.070h-0.070c0 0 0 0 0 0.035-0.070 0.070-0.070 0.139-0.070 0.244-0.105 0.279-0.174 0.558-0.209 0.838-0.105 0.628-0.244 1.186-0.384 1.744s-0.349 1.081-0.628 1.535l-0.523 0.558c-0.105 0.070-0.175 0.070-0.279 0.105-0.035 0.070-0.174 0.070-0.209 0.105-0.174 0.070-0.349 0.14-0.523 0.175-0.663 0.174-1.36 0.244-2.023 0.174-0.628-0.070-1.221-0.209-1.814-0.453-0.558-0.209-1.046-0.558-1.57-0.942-0.453-0.349-0.837-0.732-1.186-1.186l-0.488-0.698c-0.14-0.209-0.244-0.419-0.279-0.732-0.14-0.488-0.14-1.046-0.070-1.57 0.104-0.489 0.279-1.047 0.523-1.5 0.279-0.418 0.558-0.872 0.942-1.151l0.523-0.314c0.14-0.070 0.314-0.139 0.488-0.139 0.384-0.105 0.803-0.14 1.256-0.14 0.454-0.070 0.872-0.070 1.395 0 0.349 0 0.802 0.035 1.117 0.14 0.174 0.070 0.279 0.139 0.418 0.244 0.035 0.070 0.14 0.105 0.14 0.209 0 0.070 0 0.14 0 0.14 0 0.105-0.035 0.14-0.035 0.279-0.105 0.105-0.174 0.21-0.349 0.314-0.21 0.244-0.558 0.279-0.907 0.349-0.384 0.070-0.837 0.070-1.221 0.070h-1.256c-0.314 0.035-0.733 0.14-1.012 0.314l-0.349 0.419c-0.104 0.139-0.139 0.314-0.209 0.488-0.070 0.279-0.105 0.558-0.105 0.907 0 0.279 0.035 0.558 0.174 0.837 0.035 0.244 0.209 0.523 0.384 0.733 0.174 0.244 0.349 0.453 0.558 0.628 0.244 0.175 0.454 0.349 0.733 0.524 0.244 0.139 0.523 0.279 0.802 0.384s0.558 0.174 0.907 0.209c0.279 0.070 0.558 0.070 0.837 0.070s0.558 0 0.837-0.105c0.209-0.069 0.488-0.139 0.733-0.279 0.209-0.14 0.454-0.279 0.628-0.454 0.174-0.244 0.279-0.453 0.384-0.697 0.105-0.279 0.174-0.593 0.174-0.907 0.035-0.384 0-0.768-0.070-1.151l-0.035-0.070c0 0 0 0 0-0.070 0 0 0 0-0.070 0h-0.21c-0.139-0.035-0.314 0-0.418 0-0.209 0.070-0.453 0.14-0.663 0.279-0.174 0.14-0.279 0.279-0.349 0.454-0.035 0.244-0.035 0.454 0 0.698 0 0.105 0.070 0.279 0.105 0.384 0.070 0.070 0.14 0.105 0.14 0.175l0.035 0.035c0 0 0 0-0.035 0.070l-0.070 0.070c-0.209 0.174-0.453 0.279-0.663 0.314-0.244 0.069-0.453 0-0.628-0.105s-0.279-0.209-0.384-0.384c-0.244-0.453-0.279-0.977-0.174-1.43 0.105-0.558 0.454-1.012 0.907-1.326 0.384-0.279 0.872-0.453 1.326-0.558 0.523-0.174 1.012-0.349 1.43-0.698 0.035-0.035 0.105-0.035 0.175-0.105 0-0.070 0.035-0.105 0.035-0.174 0.070-0.174 0.070-0.279 0.070-0.454s0-0.314 0.035-0.488c0-0.174 0.070-0.349 0.070-0.523 0.105-0.768 0.279-1.5 0.349-2.303 0.035-0.384 0.105-0.802 0.105-1.186v-0.454c0-0.349 0.070-0.663 0.070-1.012 0.035-0.279 0.035-0.628 0.105-0.907 0-0.035 0-0.035 0-0.035 0-0.244 0-0.454 0.105-0.698 0.070-0.105 0.105-0.209 0.279-0.279 0.105-0.035 0.279 0 0.453 0 0.209 0.070 0.454 0.105 0.663 0.244 0.069 0 0.174 0.035 0.244 0.035h0.035c0 0.070 0 0.070 0 0.070v0.174c0.070 0.105 0.070 0.279 0.070 0.454v0.872c-0.070 0.698-0.209 1.36-0.384 1.989l-0.523 2.023c-0.105 0.663-0.209 1.36-0.279 2.093v0.488c0 0 0 0.070 0 0.139 0 0 0 0 0 0.035 0 0.070 0 0.070 0.070 0.070h1.291c0.733-0.070 1.466-0.105 2.233-0.244 0.733-0.035 1.535-0.174 2.268-0.279 0.384-0.035 0.733-0.105 1.116-0.174 0.175 0 0.349-0.035 0.523-0.035 0.384 0 0.803-0.070 1.116 0.035 0.244 0 0.628 0.139 0.628 0.418 0 0.175-0.105 0.314-0.209 0.454z"></path>
</svg>
